HIERARCHY
ROOT Hips
{
	OFFSET -0.001795 -0.223333 0.028219
	CHANNELS 6 Xposition Yposition Zposition Zrotation Yrotation Xrotation 
	JOINT LeftUpLeg
	{
		OFFSET 0.069520 -0.091406 -0.006815
		CHANNELS 3 Zrotation Yrotation Xrotation
		JOINT LeftLeg
		{
			OFFSET 0.034277 -0.375199 -0.004496
			CHANNELS 3 Zrotation Yrotation Xrotation
			JOINT LeftFoot
			{
				OFFSET -0.013596 -0.397961 -0.043693
				CHANNELS 3 Zrotation Yrotation Xrotation
				JOINT LeftToe
				{
					OFFSET 0.026358 -0.055791 0.119288
					CHANNELS 3 Zrotation Yrotation Xrotation
					End Site
					{
						OFFSET 0.000000 0.000000 0.000000
					}
				}
			}
		}
	}
	JOINT RightUpLeg
	{
		OFFSET -0.067670 -0.090522 -0.004320
		CHANNELS 3 Zrotation Yrotation Xrotation
		JOINT RightLeg
		{
			OFFSET -0.038290 -0.382569 -0.008850
			CHANNELS 3 Zrotation Yrotation Xrotation
			JOINT RightFoot
			{
				OFFSET 0.015774 -0.398415 -0.042312
				CHANNELS 3 Zrotation Yrotation Xrotation
				JOINT RightToe
				{
					OFFSET -0.025372 -0.048144 0.123348
					CHANNELS 3 Zrotation Yrotation Xrotation
					End Site
					{
						OFFSET 0.000000 0.000000 0.000000
					}
				}
			}
		}
	}
	JOINT Spine
	{
		OFFSET -0.002533 0.108963 -0.026696
		CHANNELS 3 Zrotation Yrotation Xrotation
		JOINT Spine1
		{
			OFFSET 0.005487 0.135180 0.001092
			CHANNELS 3 Zrotation Yrotation Xrotation
			JOINT Spine2
			{
				OFFSET 0.001457 0.052922 0.025425
				CHANNELS 3 Zrotation Yrotation Xrotation
				JOINT Neck
				{
					OFFSET -0.002778 0.213870 -0.042857
					CHANNELS 3 Zrotation Yrotation Xrotation
					JOINT Head
					{
						OFFSET 0.005152 0.064970 0.051349
						CHANNELS 3 Zrotation Yrotation Xrotation
						End Site
						{
							OFFSET 0.000000 0.000000 0.000000
						}
					}
				}
				JOINT LeftShoulder
				{
					OFFSET 0.078845 0.121749 -0.034090
					CHANNELS 3 Zrotation Yrotation Xrotation
					JOINT LeftArm
					{
						OFFSET 0.090977 0.030469 -0.008868
						CHANNELS 3 Zrotation Yrotation Xrotation
						JOINT LeftForeArm
						{
							OFFSET 0.259612 -0.012772 -0.027456
							CHANNELS 3 Zrotation Yrotation Xrotation
							JOINT LeftHand
							{
								OFFSET 0.249234 0.008986 -0.001171
								CHANNELS 3 Zrotation Yrotation Xrotation
								End Site
								{
									OFFSET 0.000000 0.000000 0.000000
								}
							}
						}
					}
				}
				JOINT RightShoulder
				{
					OFFSET -0.081759 0.118833 -0.038615
					CHANNELS 3 Zrotation Yrotation Xrotation
					JOINT RightArm
					{
						OFFSET -0.096012 0.032551 -0.009143
						CHANNELS 3 Zrotation Yrotation Xrotation
						JOINT RightForeArm
						{
							OFFSET -0.253742 -0.013329 -0.021401
							CHANNELS 3 Zrotation Yrotation Xrotation
							JOINT RightHand
							{
								OFFSET -0.255298 0.007772 -0.005559
								CHANNELS 3 Zrotation Yrotation Xrotation
								End Site
								{
									OFFSET 0.000000 0.000000 0.000000
								}
							}
						}
					}
				}
			}
		}
	}
}
MOTION
Frames: 10
Frame Time: 0.050000
0.000000 0.944724 0.000000 -1.420658 -4.132996 8.232187 5.676301 -0.515306 -9.708185 0.965908 -0.156124 1.172826 0.510304 3.463056 6.953040 0.000000 0.000000 0.000000 -1.270449 0.839676 -8.660770 -2.629423 0.440414 2.896044 0.405763 -2.232624 5.982415 0.000000 0.000000 0.000000 4.039139 0.461317 -7.446641 -2.919348 1.328569 -3.091157 -4.097460 3.819119 3.854975 7.640201 -4.259983 -9.901558 0.000000 0.000000 0.000000 -4.473482 -6.156701 1.783374 -78.179452 -36.776088 18.058775 -165.294537 -63.159698 162.434080 0.000000 0.000000 0.000000 5.217801 0.929198 0.059605 71.372486 21.555698 7.645840 136.784811 67.248737 124.784858 0.000000 0.000000 0.000000 
0.000268 0.945147 0.000522 -1.613805 -3.688120 9.040824 6.039228 -0.510606 -9.734315 0.744961 -0.080530 -0.075881 -0.207813 2.212978 7.088180 0.000000 0.000000 0.000000 -0.969318 0.927578 -9.485732 -3.191011 0.509113 2.884030 0.533552 -2.466915 7.151921 0.000000 0.000000 0.000000 4.413680 0.461311 -7.482208 -2.068300 0.952551 -3.807995 -5.407385 3.582376 3.114681 9.275434 -5.353765 -9.778016 0.000000 0.000000 0.000000 -4.993764 -6.050506 1.675746 -77.447872 -39.577968 20.147165 -175.262353 -64.385594 178.276709 0.000000 0.000000 0.000000 5.246498 0.350889 -0.161902 70.938724 20.523745 7.022669 137.059284 62.988614 121.050549 0.000000 0.000000 0.000000 
0.000699 0.944931 0.000084 -1.567401 -4.075463 8.103797 5.695190 -0.485063 -8.927202 0.846225 -0.141262 1.171933 0.116628 2.213424 5.345523 0.000000 0.000000 0.000000 -0.220864 0.920789 -9.198255 -4.184926 0.721228 3.982669 0.634330 -1.848839 6.221751 0.000000 0.000000 0.000000 4.651014 0.374544 -6.236012 -1.232858 0.590417 -3.377471 -6.138719 4.089908 1.814798 8.110535 -5.014976 -7.037855 0.000000 0.000000 0.000000 -4.951153 -7.271047 2.084247 -77.926227 -43.575501 23.666926 173.430871 -61.280199 -163.356281 0.000000 0.000000 0.000000 5.947980 1.063607 0.118656 71.468534 23.486500 9.357162 142.393368 65.762800 131.228971 0.000000 0.000000 0.000000 
0.001277 0.945395 -0.001182 -1.538793 -2.604717 8.358263 5.930720 -0.526186 -9.719234 0.659542 -0.109377 0.956232 -0.544648 1.417946 6.334220 0.000000 0.000000 0.000000 0.059800 1.016386 -10.038371 -4.586921 0.841463 4.708134 -0.028697 -3.095280 6.042836 0.000000 0.000000 0.000000 4.828288 0.380646 -6.441787 -0.972313 0.489857 -3.423514 -6.628582 2.986946 1.727659 8.335219 -5.322806 -6.303355 0.000000 0.000000 0.000000 -3.100878 -7.798442 2.405056 -80.070617 -48.263562 28.859978 163.734907 -59.386763 -146.035887 0.000000 0.000000 0.000000 4.290830 0.718325 0.045834 72.519235 25.171410 10.810284 149.406222 65.829136 141.194781 0.000000 0.000000 0.000000 
0.001981 0.946537 -0.003059 -1.271251 -1.789274 8.163274 5.211564 -0.590208 -9.976183 1.199561 -0.196358 1.505136 -0.343971 1.917245 6.482454 0.000000 0.000000 0.000000 -0.289265 1.008165 -10.118315 -4.478050 0.847499 4.932293 -0.341785 -3.668432 5.941018 0.000000 0.000000 0.000000 4.535212 0.337340 -6.058143 -0.603765 0.344985 -3.908689 -6.775305 2.870232 2.006359 8.192155 -5.188830 -6.435101 0.000000 0.000000 0.000000 -1.672484 -9.554625 3.090206 -77.278163 -55.392387 33.670177 150.656175 -54.700893 -120.546799 0.000000 0.000000 0.000000 3.840859 1.526530 0.402504 72.804573 27.182337 12.382292 156.346458 68.297147 153.146108 0.000000 0.000000 0.000000 
0.002691 0.947648 -0.004935 -1.284629 -0.902220 8.494298 5.182832 -0.623800 -10.304712 1.328048 -0.173669 0.680568 -0.653241 1.628578 7.046089 0.000000 0.000000 0.000000 -0.320351 0.999228 -10.059689 -4.349522 0.770912 4.189194 -0.627420 -4.446683 6.531118 0.000000 0.000000 0.000000 4.488966 0.333964 -6.175681 -0.310466 0.223163 -3.672110 -7.039945 2.968541 1.372803 7.931995 -5.092639 -5.726829 0.000000 0.000000 0.000000 0.353598 -9.380017 3.096709 -74.054576 -62.520668 37.870230 141.247509 -48.218438 -98.544357 0.000000 0.000000 0.000000 2.996269 2.134461 0.693443 72.362884 27.430736 12.718564 165.085524 69.916597 166.737542 0.000000 0.000000 0.000000 
0.003354 0.949601 -0.006067 -1.278793 -0.337707 8.725801 5.010439 -0.674076 -10.952475 1.747510 -0.245049 1.195878 -0.568142 2.047734 7.602602 0.000000 0.000000 0.000000 -0.075958 1.019204 -10.170080 -4.386100 0.727984 3.565823 -0.986480 -5.467510 7.372812 0.000000 0.000000 0.000000 4.529205 0.322409 -6.119861 -0.107063 0.155740 -4.300463 -6.732708 4.005944 1.490385 8.788027 -5.495819 -6.534768 0.000000 0.000000 0.000000 3.185772 -9.529640 3.294020 -63.265062 -70.446831 36.502357 132.362063 -37.490301 -71.132674 0.000000 0.000000 0.000000 2.897824 1.326484 0.437299 71.443286 26.576661 12.174007 164.848666 73.514470 168.203415 0.000000 0.000000 0.000000 
0.003928 0.951319 -0.006182 -1.141348 0.533167 9.059215 4.548158 -0.727321 -11.113976 2.324679 -0.268775 0.448359 -0.833210 1.808652 8.012098 0.000000 0.000000 0.000000 -0.043646 0.992836 -9.912970 -4.542481 0.696466 2.871241 -1.255385 -5.967145 7.423086 0.000000 0.000000 0.000000 4.232562 0.344795 -6.613432 0.072638 0.077318 -3.889836 -6.394240 4.167982 0.418545 7.863751 -5.011721 -5.421633 0.000000 0.000000 0.000000 5.818416 -8.300945 3.152491 -46.678171 -76.267707 27.896863 127.956387 -27.268099 -50.092734 0.000000 0.000000 0.000000 2.558848 1.119433 0.380529 71.396116 24.234211 10.802525 144.678745 79.120620 145.335241 0.000000 0.000000 0.000000 
0.004669 0.953519 -0.005181 -1.263593 1.243664 9.289763 4.478915 -0.736762 -10.980264 2.634574 -0.266408 -0.124432 -0.696836 2.340463 8.567388 0.000000 0.000000 0.000000 0.384870 0.994513 -9.765766 -4.686938 0.663747 2.198406 -1.583863 -7.002657 8.846678 0.000000 0.000000 0.000000 3.784930 0.331271 -6.653409 0.445703 -0.056289 -4.448177 -5.369827 4.733710 0.594584 7.998991 -4.916412 -6.203738 0.000000 0.000000 0.000000 8.691246 -7.178689 3.155414 -8.369795 -77.724103 -1.364677 126.236723 -15.756795 -29.206404 0.000000 0.000000 0.000000 1.981287 0.284441 0.093698 72.328770 20.504453 8.603758 90.469447 80.653706 87.806624 0.000000 0.000000 0.000000 
0.005718 0.954766 -0.003501 -1.012922 2.037543 9.354005 4.307539 -0.734419 -10.543942 2.554247 -0.209890 -0.912463 -0.752938 2.317477 8.557474 0.000000 0.000000 0.000000 0.097288 0.909579 -9.040687 -4.630650 0.594160 1.358219 -1.627611 -6.987655 8.806870 0.000000 0.000000 0.000000 3.246343 0.312344 -6.624307 0.399994 -0.017097 -4.765695 -4.496069 4.693424 0.315029 7.136125 -4.133883 -6.886233 0.000000 0.000000 0.000000 11.842077 -4.368483 2.883667 19.635364 -76.412227 -22.657173 127.168433 -5.076109 -10.205285 0.000000 0.000000 0.000000 1.084109 -0.927784 -0.342706 73.811918 16.568152 6.280707 54.381989 73.278011 47.188406 0.000000 0.000000 0.000000 
